<svg width="183" height="35" viewBox="0 0 183 35" fill="none" xmlns="http://www.w3.org/2000/svg">
<path d="M44.2796 25.9998H39.0996V0.974805H44.2796V10.5298C44.9096 10.0398 45.6563 9.63147 46.5196 9.3048C47.3829 8.97814 48.3046 8.81481 49.2846 8.81481C50.3113 8.81481 51.1979 8.96647 51.9446 9.2698C52.6913 9.57314 53.3096 10.0048 53.7996 10.5648C54.2896 11.1015 54.6513 11.7431 54.8846 12.4898C55.1413 13.2365 55.2696 14.0648 55.2696 14.9748V25.9998H50.0896V15.8148C50.0896 14.6948 49.8563 13.9015 49.3896 13.4348C48.9463 12.9681 48.3163 12.7348 47.4996 12.7348C46.9396 12.7348 46.3679 12.8631 45.7846 13.1198C45.2013 13.3765 44.6996 13.7148 44.2796 14.1348V25.9998Z" fill="black"/>
<path d="M69.7615 12.9098H65.4565V20.0148C65.4565 20.7848 65.6199 21.3215 65.9465 21.6248C66.2965 21.9281 66.7749 22.0798 67.3815 22.0798C67.8482 22.0798 68.3149 22.0331 68.7815 21.9398C69.2482 21.8465 69.6099 21.7181 69.8665 21.5548L70.6365 25.0898C70.2399 25.2998 69.6332 25.5098 68.8165 25.7198C68.0232 25.9065 67.1715 25.9998 66.2615 25.9998C64.0915 25.9998 62.5515 25.5798 61.6415 24.7398C60.7549 23.8998 60.3115 22.6281 60.3115 20.9248V12.9098H57.6865V9.19981H60.3115V4.0898H65.4565V9.19981H69.7615V12.9098Z" fill="black"/>
<path d="M82.9891 12.9098H78.6841V20.0148C78.6841 20.7848 78.8474 21.3215 79.1741 21.6248C79.5241 21.9281 80.0024 22.0798 80.6091 22.0798C81.0757 22.0798 81.5424 22.0331 82.0091 21.9398C82.4757 21.8465 82.8374 21.7181 83.0941 21.5548L83.8641 25.0898C83.4674 25.2998 82.8607 25.5098 82.0441 25.7198C81.2507 25.9065 80.3991 25.9998 79.4891 25.9998C77.3191 25.9998 75.7791 25.5798 74.8691 24.7398C73.9824 23.8998 73.5391 22.6281 73.5391 20.9248V12.9098H70.9141V9.19981H73.5391V4.0898H78.6841V9.19981H82.9891V12.9098Z" fill="black"/>
<path d="M94.3884 26.3848C93.8051 26.3848 93.2334 26.3148 92.6734 26.1748C92.1134 26.0581 91.6584 25.9065 91.3084 25.7198V34.0498H86.1634V9.19981H90.0134L90.5034 10.9848C91.1801 10.3081 91.9617 9.78314 92.8484 9.4098C93.7584 9.01314 94.7501 8.81481 95.8234 8.81481C96.8967 8.81481 97.8767 9.01314 98.7634 9.4098C99.6501 9.80647 100.397 10.3781 101.003 11.1248C101.61 11.8481 102.077 12.7348 102.403 13.7848C102.753 14.8348 102.928 16.0015 102.928 17.2848C102.928 18.7315 102.707 20.0265 102.263 21.1698C101.82 22.2898 101.213 23.2348 100.443 24.0048C99.6734 24.7748 98.7634 25.3698 97.7134 25.7898C96.6867 26.1865 95.5784 26.3848 94.3884 26.3848ZM94.3534 12.6648C93.6534 12.6648 93.0351 12.8281 92.4984 13.1548C91.9617 13.4815 91.5651 13.8081 91.3084 14.1348V21.8348C91.8917 22.3481 92.6967 22.6048 93.7234 22.6048C94.1901 22.6048 94.6567 22.5115 95.1234 22.3248C95.5901 22.1381 95.9984 21.8465 96.3484 21.4498C96.7217 21.0298 97.0251 20.4931 97.2584 19.8398C97.4917 19.1865 97.6084 18.3815 97.6084 17.4248C97.6084 16.0948 97.3284 14.9748 96.7684 14.0648C96.2084 13.1315 95.4034 12.6648 94.3534 12.6648Z" fill="black"/>
<path d="M106.509 25.9998V9.19981H111.689V25.9998H106.509ZM109.099 5.90981C108.213 5.90981 107.536 5.66481 107.069 5.1748C106.603 4.66147 106.369 4.0548 106.369 3.35481C106.369 2.6548 106.603 2.0598 107.069 1.56981C107.559 1.05647 108.236 0.799805 109.099 0.799805C109.963 0.799805 110.628 1.0448 111.094 1.5348C111.584 2.0248 111.829 2.63147 111.829 3.35481C111.829 4.07814 111.596 4.6848 111.129 5.1748C110.663 5.66481 109.986 5.90981 109.099 5.90981Z" fill="black"/>
<path d="M121.319 25.9998H116.139V9.19981H120.164L120.759 11.2998C121.506 10.5298 122.346 9.92314 123.279 9.4798C124.212 9.03647 125.227 8.81481 126.324 8.81481C128.214 8.81481 129.661 9.32814 130.664 10.3548C131.667 11.3815 132.169 12.8865 132.169 14.8698V25.9998H126.989V15.3948C126.989 14.5781 126.791 13.9365 126.394 13.4698C126.021 12.9798 125.461 12.7348 124.714 12.7348C124.154 12.7348 123.559 12.8981 122.929 13.2248C122.322 13.5515 121.786 13.9831 121.319 14.5198V25.9998Z" fill="black"/>
<path d="M151.392 19.1048H140.542V19.2448C140.542 20.4115 140.997 21.2631 141.907 21.7998C142.817 22.3365 143.96 22.6048 145.337 22.6048C146.293 22.6048 147.133 22.5115 147.857 22.3248C148.58 22.1381 149.187 21.9165 149.677 21.6598L150.622 25.2298C149.992 25.5331 149.187 25.8015 148.207 26.0348C147.25 26.2681 146.072 26.3848 144.672 26.3848C143.412 26.3848 142.21 26.2215 141.067 25.8948C139.947 25.5448 138.955 25.0198 138.092 24.3198C137.252 23.6198 136.575 22.7331 136.062 21.6598C135.572 20.5865 135.327 19.3031 135.327 17.8098C135.327 16.4798 135.525 15.2665 135.922 14.1698C136.342 13.0498 136.925 12.0931 137.672 11.2998C138.418 10.5065 139.305 9.89981 140.332 9.4798C141.382 9.03647 142.537 8.81481 143.797 8.81481C146.107 8.81481 147.95 9.5148 149.327 10.9148C150.703 12.3148 151.392 14.3098 151.392 16.8998V19.1048ZM146.107 15.5698C146.107 15.1731 146.06 14.7881 145.967 14.4148C145.873 14.0415 145.722 13.7148 145.512 13.4348C145.325 13.1315 145.068 12.8981 144.742 12.7348C144.438 12.5481 144.065 12.4548 143.622 12.4548C142.805 12.4548 142.128 12.7465 141.592 13.3298C141.055 13.8898 140.74 14.6598 140.647 15.6398L146.107 15.5698Z" fill="black"/>
<path d="M164.951 13.5048C164.321 13.2015 163.656 12.9681 162.956 12.8048C162.256 12.6181 161.579 12.5248 160.926 12.5248C160.319 12.5248 159.829 12.6298 159.456 12.8398C159.083 13.0498 158.896 13.3415 158.896 13.7148C158.896 14.1115 159.071 14.4498 159.421 14.7298C159.794 14.9865 160.518 15.2665 161.591 15.5698L162.641 15.8848C164.041 16.3048 165.103 16.9231 165.826 17.7398C166.549 18.5331 166.911 19.5598 166.911 20.8198C166.911 21.6598 166.736 22.4298 166.386 23.1298C166.036 23.8065 165.534 24.3898 164.881 24.8798C164.251 25.3698 163.481 25.7431 162.571 25.9998C161.684 26.2565 160.693 26.3848 159.596 26.3848C158.406 26.3848 157.344 26.2798 156.411 26.0698C155.501 25.8598 154.649 25.5565 153.856 25.1598L154.976 21.4148C155.653 21.7648 156.353 22.0565 157.076 22.2898C157.823 22.4998 158.581 22.6048 159.351 22.6048C160.238 22.6048 160.856 22.4765 161.206 22.2198C161.579 21.9631 161.766 21.6598 161.766 21.3098C161.766 21.0998 161.719 20.9248 161.626 20.7848C161.556 20.6215 161.416 20.4698 161.206 20.3298C160.996 20.1898 160.693 20.0615 160.296 19.9448C159.923 19.8048 159.433 19.6415 158.826 19.4548L157.741 19.1398C156.364 18.6965 155.361 18.0898 154.731 17.3198C154.101 16.5265 153.786 15.4648 153.786 14.1348C153.786 13.3648 153.938 12.6648 154.241 12.0348C154.544 11.3815 154.976 10.8215 155.536 10.3548C156.119 9.86481 156.819 9.49147 157.636 9.2348C158.476 8.9548 159.433 8.81481 160.506 8.81481C161.579 8.81481 162.571 8.9198 163.481 9.1298C164.414 9.31647 165.254 9.5848 166.001 9.9348L164.951 13.5048Z" fill="black"/>
<path d="M180.503 13.5048C179.873 13.2015 179.208 12.9681 178.508 12.8048C177.808 12.6181 177.131 12.5248 176.478 12.5248C175.871 12.5248 175.381 12.6298 175.008 12.8398C174.635 13.0498 174.448 13.3415 174.448 13.7148C174.448 14.1115 174.623 14.4498 174.973 14.7298C175.346 14.9865 176.07 15.2665 177.143 15.5698L178.193 15.8848C179.593 16.3048 180.655 16.9231 181.378 17.7398C182.101 18.5331 182.463 19.5598 182.463 20.8198C182.463 21.6598 182.288 22.4298 181.938 23.1298C181.588 23.8065 181.086 24.3898 180.433 24.8798C179.803 25.3698 179.033 25.7431 178.123 25.9998C177.236 26.2565 176.245 26.3848 175.148 26.3848C173.958 26.3848 172.896 26.2798 171.963 26.0698C171.053 25.8598 170.201 25.5565 169.408 25.1598L170.528 21.4148C171.205 21.7648 171.905 22.0565 172.628 22.2898C173.375 22.4998 174.133 22.6048 174.903 22.6048C175.79 22.6048 176.408 22.4765 176.758 22.2198C177.131 21.9631 177.318 21.6598 177.318 21.3098C177.318 21.0998 177.271 20.9248 177.178 20.7848C177.108 20.6215 176.968 20.4698 176.758 20.3298C176.548 20.1898 176.245 20.0615 175.848 19.9448C175.475 19.8048 174.985 19.6415 174.378 19.4548L173.293 19.1398C171.916 18.6965 170.913 18.0898 170.283 17.3198C169.653 16.5265 169.338 15.4648 169.338 14.1348C169.338 13.3648 169.49 12.6648 169.793 12.0348C170.096 11.3815 170.528 10.8215 171.088 10.3548C171.671 9.86481 172.371 9.49147 173.188 9.2348C174.028 8.9548 174.985 8.81481 176.058 8.81481C177.131 8.81481 178.123 8.9198 179.033 9.1298C179.966 9.31647 180.806 9.5848 181.553 9.9348L180.503 13.5048Z" fill="black"/>
<path d="M10.243 26C23.2872 26.0001 23.6214 0.999965 37 1.00011L26.757 1C13.3783 0.999851 13.0442 26 0 25.9999L10.243 26Z" fill="#FF5C00"/>
</svg>
