<?xml version="1.0" standalone="no"?>
<!DOCTYPE svg PUBLIC "-//W3C//DTD SVG 1.1//EN" "http://www.w3.org/Graphics/SVG/1.1/DTD/svg11.dtd" >
<svg xmlns="http://www.w3.org/2000/svg">
<metadata>Generated by IcoMoon</metadata>
<defs>
<font id="rapids-icons" horiz-adv-x="1024">
<font-face units-per-em="1024" ascent="960" descent="-64" />
<missing-glyph horiz-adv-x="1024" />
<glyph unicode="&#x20;" horiz-adv-x="512" d="" />
<glyph unicode="&#xe900;" glyph-name="lock" horiz-adv-x="939" d="M455.763 951.45l13.571 0.404c56.567 0.003 111.003-21.575 152.207-60.331s66.069-91.773 69.524-148.234l0.404-13.571v-40.388h60.582c32.135 0 62.954-12.766 85.676-35.488s35.488-53.542 35.488-85.676v-484.658c0-32.137-12.766-62.95-35.488-85.675s-53.542-35.49-85.676-35.49h-565.436c-32.135 0-62.954 12.766-85.676 35.49s-35.489 53.538-35.489 85.675v484.658c0 32.135 12.766 62.954 35.489 85.676s53.542 35.488 85.676 35.488h60.582v40.388c-0.003 56.567 21.575 111.004 60.332 152.207s91.773 66.069 148.233 69.525zM469.333 406.612c-21.424 0-41.969-8.51-57.118-23.659s-23.659-35.695-23.659-57.118c0-21.423 8.51-41.969 23.659-57.118s35.694-23.659 57.118-23.659c21.423 0 41.969 8.51 57.118 23.659s23.659 35.695 23.659 57.118c0 21.423-8.51 41.969-23.659 57.118s-35.695 23.659-57.118 23.659zM479.672 830.205l-10.339 0.485c-24.997 0.011-49.109-9.25-67.672-25.992s-30.255-39.774-32.814-64.639l-0.485-10.34v-40.388h201.941v40.388c0.011 24.997-9.25 49.109-25.992 67.672s-39.774 30.255-64.64 32.814z" />
<glyph unicode="&#xe901;" glyph-name="collapse-all" horiz-adv-x="1210" d="M269.964 876.218h828.509c9.309 0 18.618 0 27.927 9.309s9.309 18.618 9.309 27.927c0 9.309 0 18.618-9.309 27.927s-18.618 18.618-27.927 18.618h-828.509c-9.309 0-18.618 0-27.927-9.309s-9.309-18.618-18.618-27.927c0-9.309 0-18.618 9.309-27.927s18.618-18.618 37.236-18.618v0zM269.964 19.782h828.509c9.309 0 18.618 0 27.927 9.309s9.309 18.618 9.309 27.927c0 9.309 0 18.618-9.309 27.927s-18.618 9.309-27.927 18.618h-828.509c-9.309 0-18.618 0-27.927-9.309s-9.309-18.618-18.618-27.927 0-18.618 9.309-27.927c9.309-9.309 18.618-18.618 37.236-18.618v0zM670.255 671.418c-9.309 0-18.618 0-27.927-9.309s-18.618-18.618-18.618-27.927c0-9.309 0-18.618 9.309-27.927s27.927-18.618 37.236-18.618h428.218c9.309 0 18.618 0 27.927 9.309s9.309 18.618 9.309 27.927c0 9.309 0 18.618-9.309 27.927s-18.618 9.309-27.927 9.309h-428.218zM623.709 345.6c0 9.309 0 18.618 9.309 27.927s18.618 9.309 27.927 9.309h428.218c9.309 0 18.618 0 27.927-9.309s9.309-18.618 9.309-27.927c0-9.309 0-18.618-9.309-27.927 0-9.309-9.309-9.309-18.618-9.309h-428.218c-9.309 0-27.927 0-27.927 9.309-9.309 9.309-18.618 18.618-18.618 27.927zM512 475.927c0-37.236-9.309-65.164-18.618-102.4-18.618-27.927-37.236-55.855-55.855-74.473s-55.855-46.545-83.782-55.855c-27.927-18.618-65.164-18.618-102.4-18.618-27.927 0-65.164 0-93.091 18.618-27.927 9.309-55.855 27.927-83.782 55.855-27.927 18.618-46.545 46.545-55.855 83.782-9.309 27.927-18.618 55.855-18.618 93.091 0 65.164 27.927 130.327 74.473 176.873s111.709 83.782 176.873 83.782c65.164 0 130.327-27.927 176.873-74.473s83.782-121.018 83.782-186.182zM400.291 475.927c0 9.309 0 18.618-9.309 18.618-9.309 9.309-18.618 9.309-18.618 9.309h-232.727c-9.309 0-18.618 0-18.618-9.309 0 0-9.309-9.309-9.309-18.618s0-18.618 9.309-18.618 9.309-9.309 18.618-9.309h232.727c9.309 0 18.618 0 18.618 9.309s9.309 9.309 9.309 18.618z" />
<glyph unicode="&#xe902;" glyph-name="delete" horiz-adv-x="939" d="M640 789.333h256c11.315 0 22.17-4.495 30.174-12.497 7.996-8.001 12.493-18.854 12.493-30.17s-4.497-22.168-12.493-30.17c-8.004-8.002-18.859-12.497-30.174-12.497h-47.189l-64.171-578.219c-5.797-52.181-30.635-100.395-69.759-135.415-39.124-35.012-89.789-54.374-142.294-54.366h-206.507c-52.506-0.009-103.17 19.354-142.294 54.366-39.124 35.021-63.962 83.234-69.759 135.415l-64.256 578.219h-47.104c-11.316 0-22.168 4.495-30.17 12.497s-12.497 18.854-12.497 30.17c0 11.316 4.495 22.169 12.497 30.17s18.854 12.497 30.17 12.497h256c0 45.263 17.981 88.673 49.987 120.68s75.416 49.987 120.679 49.987c45.263 0 88.673-17.981 120.679-49.987s49.987-75.416 49.987-120.68zM469.333 874.667c-22.632 0-44.337-8.991-60.34-24.993s-24.993-37.708-24.993-60.34h170.667c0 22.632-8.991 44.337-24.993 60.34s-37.708 24.993-60.34 24.993zM341.333 533.333v-341.333c0-11.316 4.495-22.168 12.497-30.17s18.854-12.497 30.17-12.497c11.316 0 22.169 4.495 30.17 12.497s12.497 18.854 12.497 30.17v341.333c0 11.316-4.495 22.169-12.497 30.17s-18.854 12.497-30.17 12.497c-11.316 0-22.169-4.495-30.17-12.497s-12.497-18.854-12.497-30.17zM554.667 576c-11.316 0-22.169-4.495-30.17-12.497s-12.497-18.854-12.497-30.17v-341.333c0-11.316 4.495-22.168 12.497-30.17s18.854-12.497 30.17-12.497c11.316 0 22.169 4.495 30.17 12.497s12.497 18.854 12.497 30.17v341.333c0 11.316-4.495 22.169-12.497 30.17s-18.854 12.497-30.17 12.497z" />
<glyph unicode="&#xe903;" glyph-name="file-solid" horiz-adv-x="768" d="M366.933 960v-247.467c0-25.6 8.533-51.2 34.133-76.8 17.067-17.067 42.667-25.6 76.8-25.6h256v-529.067c0-25.6-8.533-51.2-34.133-76.8-17.067-17.067-51.2-34.133-76.8-34.133h-512c-25.6 0-59.733 8.533-76.8 34.133s-34.133 42.667-34.133 68.267v785.067c0 25.6 8.533 51.2 34.133 76.8 17.067 17.067 42.667 25.6 76.8 25.6h256zM443.733 942.933v-230.4c0-8.533 0-17.067 8.533-25.6s17.067-8.533 25.6-8.533h238.933l-273.067 264.533z" />
<glyph unicode="&#xe904;" glyph-name="file-void" horiz-adv-x="768" d="M146.539 960c-38.864 0-76.137-14.893-103.619-41.403s-42.92-62.465-42.92-99.956v-706.794c0-37.488 15.439-73.447 42.92-99.952 27.481-26.513 64.754-41.404 103.619-41.404h439.616c38.864 0 76.137 14.891 103.618 41.404 27.482 26.505 42.92 62.464 42.92 99.952v536.174c-0.026 28.109-11.622 55.057-32.238 74.92l-213.433 206.030c-10.211 9.843-22.332 17.65-35.67 22.974s-27.633 8.061-42.068 8.055h-262.744zM73.269 818.641c0 18.745 7.72 36.723 21.46 49.978s32.377 20.702 51.809 20.702h219.808v-176.699c0-28.118 11.58-55.084 32.19-74.967s48.566-31.052 77.714-31.052h183.173v-494.756c0-18.749-7.719-36.72-21.46-49.981-13.74-13.252-32.376-20.702-51.808-20.702h-439.616c-19.432 0-38.069 7.45-51.809 20.702-13.741 13.261-21.46 31.232-21.46 49.981v706.794zM644.257 677.282h-168.007c-9.716 0-19.034 3.724-25.905 10.351s-10.73 15.617-10.73 24.989v162.068l204.641-197.408z" />
<glyph unicode="&#xe905;" glyph-name="import" horiz-adv-x="1331" d="M1261.568 960c11.878-0.001 23.357-4.302 32.307-12.109s14.776-18.591 16.384-30.358l0.461-6.685v-852.23c0-12.454-4.731-24.441-13.24-33.541-8.499-9.099-20.132-14.633-32.563-15.482-12.421-0.849-24.709 3.050-34.365 10.909s-15.974 19.092-17.674 31.43l-0.461 6.685v852.23c0 13.036 5.181 25.538 14.397 34.756s21.719 14.396 34.755 14.396zM697.762 841.773l4.784 5.505c8.326 8.342 19.373 13.413 31.126 14.292s23.43-2.496 32.903-9.507l5.505-4.784 327.42-327.483c8.325-8.322 13.384-19.356 14.264-31.094s-2.488-23.401-9.482-32.869l-4.721-5.571-327.481-327.877c-8.759-8.818-20.533-13.989-32.952-14.473s-24.561 3.753-33.98 11.86-15.419 19.483-16.79 31.835c-1.37 12.354 1.991 24.766 9.404 34.741l4.784 5.505 243.14 243.597h-896.534c-11.868-0.002-23.335 4.291-32.285 12.084s-14.778 18.562-16.408 30.318l-0.459 6.685c0.003 11.888 4.313 23.371 12.134 32.324s18.62 14.769 30.399 16.37l6.619 0.459 897.451 0.066-244.057 244.056c-8.324 8.322-13.385 19.356-14.263 31.094s2.486 23.401 9.479 32.869z" />
<glyph unicode="&#xe906;" glyph-name="inherit" horiz-adv-x="1126" d="M30.72 468.48l460.8 460.8c20.48 20.48 51.2 30.72 71.68 30.72 30.72 0 51.2-10.24 71.68-30.72l460.8-460.8c20.48-20.48 30.72-40.96 30.72-71.68 0-20.48-10.24-51.2-30.72-71.68s-40.96-30.72-71.68-30.72c-20.48 0-51.2 10.24-71.68 30.72l-286.72 296.96v-512c0-20.48-10.24-51.2-20.48-61.44-20.48-20.48-40.96-30.72-61.44-30.72h-10.24c-30.72 0-51.2 10.24-71.68 20.48-20.48 20.48-30.72 51.2-30.72 71.68v512l-296.96-296.96c-10.24-10.24-20.48-20.48-30.72-20.48-10.24-10.24-30.72-10.24-40.96-10.24s-30.72 0-40.96 10.24-20.48 10.24-30.72 20.48c-10.24 10.24-20.48 20.48-20.48 30.72-10.24 10.24-10.24 20.48-10.24 40.96 0 10.24 0 30.72 10.24 40.96s10.24 20.48 20.48 30.72v0z" />
<glyph unicode="&#xe907;" glyph-name="local" horiz-adv-x="465" d="M465.455 960l-251.345-819.2c-18.618-46.545-18.618-74.473-18.618-93.091 0-9.309 0-9.309 9.309-18.618 0 0 9.309-9.309 18.618-9.309s18.618 0 27.927 9.309c27.927 18.618 46.545 46.545 83.782 93.091h18.618c-46.545-74.473-93.091-130.327-139.636-158.255-37.236-18.618-74.473-27.927-102.4-27.927-37.236 0-55.855 9.309-74.473 27.927-27.927 18.618-37.236 37.236-37.236 55.855s9.309 46.545 18.618 83.782l204.8 670.255c9.309 37.236 18.618 65.164 18.618 74.473s-9.309 18.618-18.618 27.927c-18.618 9.309-37.236 18.618-65.164 9.309l9.309 27.927 251.345 46.545h46.545z" />
<glyph unicode="&#xe908;" glyph-name="new-dir" horiz-adv-x="1117" d="M451.672 881.113l-80.721 60.541c-15.879 11.908-35.19 18.346-55.037 18.346h-163.033c-40.547 0-79.433-16.107-108.103-44.778s-44.778-67.557-44.778-108.103v-61.152h310.043c4.155-0.001 8.266 0.844 12.081 2.485s7.259 4.040 10.117 7.055l119.431 125.607zM523.771 868.273l-147.194-154.9c-8.564-9.018-18.874-16.2-30.302-21.109s-23.734-7.444-36.17-7.448h-310.104v-428.068c0-40.547 16.107-79.433 44.778-108.104s67.557-44.778 108.103-44.778h311.878c-35.195 68.897-45.562 147.819-29.356 223.468s57.998 143.396 118.33 191.827c60.331 48.431 135.514 74.581 212.877 74.045s152.177-27.726 211.832-76.988v199.174l-0.307 10.030c-2.541 38.73-19.726 75.043-48.063 101.571-28.334 26.528-65.698 41.286-104.512 41.28h-301.788zM959.004 62.16c51.6 51.607 80.598 121.602 80.598 194.586s-28.998 142.978-80.598 194.586c-51.611 51.607-121.606 80.6-194.59 80.6s-142.978-28.993-194.586-80.6c-51.607-51.608-80.6-121.603-80.6-194.586s28.993-142.979 80.6-194.586c51.608-51.612 121.603-80.601 194.586-80.601s142.979 28.989 194.59 80.601zM786.035 400.671c5.733-5.733 8.955-13.511 8.955-21.62v-91.729h91.729c8.109 0 15.886-3.221 21.62-8.955s8.955-13.511 8.955-21.62c0-8.109-3.221-15.887-8.955-21.621s-13.511-8.955-21.62-8.955h-91.729v-91.729c0-8.109-3.222-15.886-8.955-21.62s-13.512-8.955-21.621-8.955c-8.109 0-15.886 3.221-21.62 8.955s-8.955 13.511-8.955 21.62v91.729h-91.729c-8.109 0-15.887 3.222-21.62 8.955s-8.956 13.512-8.956 21.621c0 8.109 3.222 15.886 8.956 21.62s13.511 8.955 21.62 8.955h91.729v91.729c0 8.109 3.221 15.887 8.955 21.62s13.511 8.956 21.62 8.956c8.109 0 15.887-3.222 21.621-8.956z" />
<glyph unicode="&#xe909;" glyph-name="new-file" horiz-adv-x="939" d="M349.867 960c-34.133 0-68.267-17.067-93.867-42.667s-42.667-59.733-42.667-102.4v-153.6c25.6 8.533 42.667 8.533 68.267 17.067v136.533c0 17.067 8.533 34.133 17.067 51.2 17.067 17.067 34.133 17.067 51.2 17.067h213.333v-179.2c0-25.6 8.533-51.2 34.133-76.8 17.067-8.533 42.667-17.067 76.8-17.067h179.2v-494.933c0-17.067-8.533-34.133-17.067-51.2-17.067-17.067-34.133-17.067-51.2-17.067h-170.667c-25.6-25.6-51.2-51.2-76.8-68.267h238.933c34.133 0 76.8 17.067 102.4 42.667s42.667 59.733 42.667 102.4v520.533c0 25.6-8.533 51.2-34.133 76.8l-204.8 204.8c-25.6 25.6-51.2 34.133-76.8 34.133h-256zM836.267 678.4h-162.133c-8.533 0-17.067 0-25.6 8.533s-17.067 17.067-17.067 25.6v162.133l204.8-196.267zM631.467 285.867c0-85.333-34.133-162.133-93.867-221.867s-136.533-93.867-221.867-93.867c-85.333 0-162.133 34.133-221.867 93.867s-93.867 145.067-93.867 221.867 34.133 162.133 93.867 221.867c59.733 59.733 136.533 93.867 221.867 93.867s162.133-34.133 221.867-93.867c68.267-51.2 93.867-136.533 93.867-221.867zM349.867 430.933c0 8.533 0 17.067-8.533 25.6s-17.067 8.533-25.6 8.533c-8.533 0-17.067 0-25.6-8.533 0-8.533-8.533-17.067-8.533-25.6v-102.4h-102.4c-8.533 0-17.067 0-25.6-8.533s-8.533-17.067-8.533-34.133c0-8.533 0-17.067 8.533-25.6 8.533 0 17.067-8.533 25.6-8.533h102.4v-102.4c0-8.533 0-17.067 8.533-25.6s17.067-8.533 25.6-8.533c8.533 0 17.067 0 25.6 8.533s8.533 17.067 8.533 25.6v102.4h102.4c8.533 0 17.067 0 25.6 8.533s17.067 17.067 17.067 25.6c0 8.533 0 17.067-8.533 25.6s-17.067 17.067-25.6 17.067h-110.933v102.4z" />
<glyph unicode="&#xe90a;" glyph-name="new-req" horiz-adv-x="1434" d="M1003.52 294.4c0-92.16-40.96-184.32-102.4-245.76s-153.6-102.4-245.76-102.4-184.32 40.96-245.76 112.64c-61.44 61.44-102.4 153.6-102.4 235.52 0 92.16 40.96 184.32 102.4 245.76s153.6 102.4 245.76 102.4 184.32-40.96 245.76-102.4c61.44-61.44 102.4-153.6 102.4-245.76zM696.32 448c0 10.24 0 20.48-10.24 30.72s-20.48 10.24-30.72 10.24-20.48 0-30.72-10.24-10.24-20.48-10.24-30.72v-112.64h-112.64c-10.24 0-20.48 0-30.72-10.24s-10.24-20.48-10.24-30.72c0-10.24 0-20.48 10.24-30.72s20.48-10.24 30.72-10.24h112.64v-112.64c0-10.24 0-20.48 10.24-30.72s20.48-10.24 30.72-10.24 20.48 0 30.72 10.24c0 20.48 10.24 20.48 10.24 30.72v122.88h112.64c10.24 0 20.48 0 30.72 10.24s10.24 20.48 10.24 30.72c0 10.24 0 20.48-10.24 30.72-10.24 0-20.48 0-30.72 0h-112.64v112.64zM1249.28 458.24c71.68 40.96 112.64 122.88 112.64 235.52 0 81.92-20.48 153.6-61.44 194.56s-102.4 71.68-184.32 71.68c-92.16 0-153.6-20.48-194.56-71.68-40.96-40.96-61.44-102.4-61.44-194.56 0-20.48 0-30.72 0-40.96 81.92-51.2 143.36-122.88 174.080-215.040 20.48 0 40.96-10.24 71.68-10.24v0 0 0l92.16-112.64h174.080l-122.88 143.36zM1105.92 550.4c-71.68 0-102.4 51.2-102.4 143.36 0 102.4 30.72 153.6 102.4 153.6 30.72 0 61.44-10.24 71.68-40.96 20.48-20.48 30.72-61.44 30.72-112.64s-10.24-92.16-20.48-112.64c-20.48-20.48-40.96-30.72-81.92-30.72zM348.16 570.88c-30.72-30.72-61.44-71.68-71.68-112.64l-102.4 174.080h-30.72v-184.32h-143.36v512h163.84c143.36 0 204.8-51.2 204.8-153.6 0-61.44-30.72-102.4-81.92-133.12l61.44-102.4zM143.36 734.72h30.72c51.2 0 71.68 20.48 71.68 61.44 0 30.72-20.48 51.2-71.68 51.2h-30.72v-112.64zM778.24 693.76v71.68h-153.6v71.68h163.84v112.64h-307.2v-276.48c51.2 20.48 112.64 30.72 163.84 30.72s92.16 0 133.12-10.24z" />
<glyph unicode="&#xe90b;" glyph-name="pin" horiz-adv-x="597" d="M51.2 960h486.4v-93.867l-102.4-51.2v-247.467l145.067-145.067v-145.067h-238.933v-196.267l-51.2-145.067-51.2 145.067v196.267h-238.933v145.067l145.067 145.067v247.467l-93.867 51.2v93.867z" />
<glyph unicode="&#xe90c;" glyph-name="result" horiz-adv-x="1126" d="M604.16 898.56c20.48 20.48 51.2 20.48 71.68 0l419.84-419.84c10.24-10.24 10.24-20.48 10.24-40.96 0-10.24-10.24-30.72-10.24-40.96l-419.84-409.6c-20.48-20.48-51.2-20.48-71.68 0s-20.48 51.2 0 71.68l327.68 327.68h-829.44c-30.72 0-51.2 20.48-51.2 51.2s20.48 51.2 51.2 51.2h829.44l-327.68 327.68c-20.48 20.48-20.48 61.44 0 81.92z" />
<glyph unicode="&#xe90d;" glyph-name="save1" d="M130.327 960c-37.236 0-65.164-9.309-93.091-37.236s-37.236-55.855-37.236-93.091v-642.327c0-37.236 9.309-65.164 37.236-93.091s55.855-37.236 93.091-37.236v353.745c0 27.927 9.309 46.545 27.927 65.164s46.545 27.927 65.164 27.927h418.909l74.473 74.473c27.927 27.927 55.855 46.545 83.782 55.855 37.236 9.309 65.164 9.309 102.4 0v93.091c0 37.236-9.309 65.164-37.236 93.091l-102.4 102.4c-27.927 27.927-55.855 37.236-93.091 37.236h-27.927v-223.418c0-27.927-9.309-46.545-27.927-65.164-18.618-27.927-37.236-37.236-65.164-37.236h-260.655c-27.927 0-46.545 9.309-65.164 27.927s-27.927 46.545-27.927 74.473v223.418h-65.164zM577.164 438.691l-167.564-167.564c-27.927-27.927-46.545-55.855-55.855-93.091l-27.927-93.091c0-9.309 0-18.618 0-18.618h-130.327v344.436c0 9.309 0 18.618 9.309 18.618 9.309 9.309 18.618 9.309 18.618 9.309h353.745zM260.655 960h325.818v-223.418c0-9.309 0-18.618-9.309-18.618-9.309-9.309-18.618-18.618-27.927-18.618h-260.655c-9.309 0-18.618 0-18.618 9.309-9.309 9.309-9.309 18.618-9.309 27.927v223.418zM763.345 541.091l-316.509-316.509c-9.309-18.618-27.927-37.236-37.236-65.164l-27.927-93.091c0-9.309 0-18.618 0-27.927s9.309-18.618 18.618-27.927c9.309-9.309 18.618-9.309 27.927-18.618 9.309 0 18.618 0 27.927 0l93.091 27.927c27.927 9.309 46.545 18.618 65.164 37.236l316.509 307.2c18.618 18.618 37.236 55.855 37.236 83.782s-9.309 65.164-37.236 83.782c-18.618 27.927-46.545 37.236-83.782 37.236-27.927 0-65.164-9.309-83.782-27.927z" />
<glyph unicode="&#xe90e;" glyph-name="settings" horiz-adv-x="945" d="M1.349 619.21c21.4 66.078 56.554 126.872 103.148 178.381 3.852 4.257 8.88 7.272 14.449 8.664s11.425 1.098 16.826-0.845l111.083-39.73c7.908-2.824 16.336-3.894 24.699-3.137s16.46 3.323 23.733 7.522c7.272 4.198 13.544 9.927 18.382 16.79s8.126 14.697 9.635 22.957l21.139 116.18c1.024 5.656 3.707 10.879 7.709 15.004s9.14 6.967 14.762 8.162c67.869 14.457 138.022 14.457 205.891 0 5.622-1.196 10.761-4.037 14.762-8.162s6.686-9.348 7.709-15.004l21.198-116.18c1.509-8.26 4.797-16.093 9.635-22.957s11.11-12.593 18.382-16.79c7.272-4.198 15.37-6.765 23.733-7.522s16.79 0.314 24.698 3.137l111.138 39.73c5.404 1.924 11.248 2.202 16.809 0.8 5.553-1.402 10.571-4.422 14.407-8.676 46.568-51.497 81.707-112.271 103.093-178.323 1.764-5.456 1.875-11.313 0.307-16.829s-4.742-10.443-9.114-14.156l-90.057-76.449c-6.396-5.437-11.532-12.2-15.061-19.82-3.521-7.62-5.348-15.916-5.348-24.312s1.827-16.691 5.348-24.311c3.529-7.62 8.665-14.383 15.061-19.82l90.057-76.449c4.372-3.712 7.546-8.639 9.114-14.156s1.457-11.373-0.307-16.829c-21.386-66.072-56.517-126.867-103.093-178.382-3.844-4.254-8.877-7.27-14.446-8.665-5.569-1.386-11.422-1.095-16.825 0.851l-111.083 39.723c-7.908 2.827-16.335 3.898-24.698 3.141-8.363-0.754-16.461-3.322-23.733-7.52s-13.545-9.925-18.382-16.794c-4.838-6.861-8.126-14.698-9.635-22.953l-21.255-116.24c-1.030-5.64-3.71-10.839-7.7-14.958-3.99-4.112-9.11-6.947-14.714-8.153-67.868-14.454-138.023-14.454-205.891 0-5.622 1.197-10.761 4.041-14.762 8.168-4.002 4.12-6.685 9.342-7.709 14.998l-21.139 116.185c-1.509 8.255-4.797 16.093-9.635 22.953-4.838 6.869-11.11 12.595-18.382 16.794s-15.37 6.766-23.733 7.52c-8.363 0.757-16.79-0.314-24.699-3.141l-111.14-39.723c-5.399-1.93-11.247-2.206-16.804-0.803s-10.573 4.419-14.413 8.672c-46.567 51.5-81.702 112.275-103.090 178.327-1.765 5.456-1.871 11.313-0.304 16.829s4.737 10.443 9.107 14.156l90.059 76.449c6.398 5.437 11.537 12.2 15.061 19.82s5.35 15.916 5.35 24.311c0 8.396-1.825 16.692-5.35 24.312s-8.663 14.383-15.061 19.82l-90.059 76.449c-4.37 3.712-7.54 8.639-9.107 14.156s-1.519 11.373 0.246 16.829zM354.057 467.644c0-30.72 12.204-60.182 33.927-81.905s51.185-33.927 81.905-33.927c30.721 0 60.183 12.204 81.906 33.927s33.926 51.185 33.926 81.905c0 30.721-12.203 60.183-33.926 81.906s-51.185 33.927-81.906 33.927c-30.72 0-60.183-12.204-81.905-33.927s-33.927-51.185-33.927-81.906z" />
<glyph unicode="&#xe90f;" glyph-name="close" d="M591.644 448l409.6 409.6c22.756 22.756 22.756 34.133 22.756 45.511s-11.378 34.133-11.378 34.133c-11.378 11.378-34.133 22.756-45.511 22.756s-22.756 0-34.133-11.378l-420.978-420.978-409.6 420.978c-11.378 11.378-22.756 11.378-45.511 11.378s-22.756-11.378-34.133-11.378-11.378-34.133-11.378-45.511 0-22.756 11.378-34.133l409.6-420.978-409.6-409.6c-11.378-11.378-11.378-11.378-22.756-22.756 0-11.378 0-11.378 0-22.756s0-11.378 0-22.756 11.378-11.378 11.378-22.756c0 0 11.378-11.378 22.756-11.378s11.378 0 22.756 0 11.378 0 22.756 0 11.378 11.378 22.756 11.378l409.6 409.6 409.6-409.6c11.378-11.378 22.756-11.378 34.133-11.378s22.756 11.378 34.133 11.378c22.756 22.756 34.133 34.133 34.133 45.511s0 22.756-11.378 34.133l-420.978 420.978z" />
<glyph unicode="&#xe910;" glyph-name="exitfullscreen" d="M472.615 960v-472.615h-472.615l472.615 472.615zM551.385-64v472.615h472.615l-472.615-472.615z" />
<glyph unicode="&#xe911;" glyph-name="fullscreen" d="M0 192v768h768l-768-768zM1024 704v-768h-768l768 768z" />
<glyph unicode="&#xe912;" glyph-name="maximize" d="M0 960v-1024h1024v1024h-1024zM910.222 49.778h-796.444v796.444h796.444v-796.444z" />
<glyph unicode="&#xe913;" glyph-name="minimize" d="M1024 391.111h-1024v113.778h1024v-113.778z" />
<glyph unicode="&#xe914;" glyph-name="restore" d="M341.333 960v-341.333h-341.333v-682.667h682.667v341.333h341.333v682.667h-682.667zM568.889 49.778h-455.111v455.111h455.111v-455.111zM910.222 391.111h-227.556v227.556h-227.556v227.556h455.111v-455.111z" />
<glyph unicode="&#xe915;" glyph-name="clear" d="M512 960c-284.444 0-512-227.556-512-512s227.556-512 512-512 512 227.556 512 512-227.556 512-512 512zM113.778 448c0 216.178 182.044 398.222 398.222 398.222 91.022 0 170.667-34.133 238.933-79.644l-557.511-557.511c-45.511 68.267-79.644 147.911-79.644 238.933zM512 49.778c-91.022 0-170.667 34.133-238.933 79.644l557.511 557.511c45.511-68.267 79.644-147.911 79.644-238.933 0-216.178-182.044-398.222-398.222-398.222z" />
<glyph unicode="&#xe916;" glyph-name="say" d="M269.964-64c-9.309 0-9.309 0 0 0-9.309 0-9.309 0-9.309 0-18.618 0-27.927 0-46.545 0h-65.164l37.236 46.545c9.309 9.309 18.618 27.927 18.618 37.236 9.309 27.927 18.618 55.855 27.927 93.091-148.945 83.782-232.727 214.109-232.727 400.291 0 269.964 195.491 446.836 512 446.836s512-176.873 512-446.836c0-279.273-195.491-446.836-512-446.836h-18.618c-46.545-55.855-111.709-111.709-223.418-130.327zM316.509 47.709c46.545 9.309 83.782 46.545 102.4 74.473l27.927 37.236h65.164c148.945 0 251.345 37.236 316.509 93.091s102.4 139.636 102.4 260.655c0 111.709-37.236 195.491-102.4 260.655-74.473 55.855-176.873 93.091-316.509 93.091s-242.036-37.236-316.509-102.4c-65.164-55.855-102.4-139.636-102.4-251.345 0-148.945 65.164-251.345 186.182-307.2l65.164-27.927-18.618-74.473c0-18.618-9.309-37.236-9.309-55.855z" />
<glyph unicode="&#xe917;" glyph-name="update" horiz-adv-x="1219" d="M153.6 652.8c-30.72-61.44-40.96-133.12-40.96-204.8 0-286.72 225.28-512 512-512 102.4 0 194.56 30.72 276.48 81.92l-81.92 71.68c-61.44-30.72-122.88-51.2-194.56-51.2-225.28 0-409.6 184.32-409.6 409.6 0 51.2 10.24 92.16 20.48 143.36l30.72-92.16 92.16 30.72-81.92 256-276.48-71.68 20.48-102.4 133.12 40.96zM1187.84 232.96l-122.88-30.72c40.96 71.68 61.44 153.6 61.44 245.76 0 286.72-225.28 512-512 512-112.64 0-225.28-40.96-307.2-102.4l71.68-71.68c71.68 40.96 153.6 71.68 245.76 71.68 225.28 0 409.6-184.32 409.6-409.6 0-71.68-20.48-133.12-51.2-194.56l-30.72 102.4-102.4-30.72 92.16-256 276.48 71.68-30.72 92.16z" />
<glyph unicode="&#xe918;" glyph-name="more" horiz-adv-x="473" d="M433.231 448l-338.708-441.108-63.015 47.262 275.692 409.6-275.692 409.6 63.015 47.262 338.708-441.108v-31.508z" />
<glyph unicode="&#xe919;" glyph-name="restart" horiz-adv-x="1210" d="M791.273 187.345c46.545 37.236 74.473 83.782 93.091 130.327l83.782-27.927c-27.927-65.164-65.164-121.018-121.018-167.564-186.182-176.873-484.073-158.255-660.945 27.927s-158.255 484.073 27.927 660.945c186.182 176.873 484.073 158.255 660.945-27.927 55.855-55.855 93.091-130.327 111.709-195.491l65.164 74.473 74.473-55.855-167.564-204.8-204.8 139.636 55.855 74.473 93.091-65.164c-18.618 65.164-46.545 121.018-93.091 167.564-139.636 148.945-372.364 158.255-521.309 18.618-158.255-139.636-167.564-372.364-27.927-521.309 139.636-158.255 372.364-167.564 530.618-27.927z" />
<glyph unicode="&#xe91a;" glyph-name="search" horiz-adv-x="1007" d="M581.424 951.322c-234.305 0-416.542-190.915-416.542-416.542 0-104.136 43.39-208.271 104.136-277.695l-251.661-251.661 60.746-60.746 251.661 251.661c69.424-52.068 156.203-78.102 242.983-78.102 234.305 0 416.542 190.915 416.542 416.542 8.678 225.627-182.237 416.542-407.864 416.542zM581.424 205.017c-182.237 0-329.763 147.525-329.763 329.763s147.525 329.763 329.763 329.763 329.763-147.525 329.763-329.763-147.525-329.763-329.763-329.763z" />
<glyph unicode="&#xe91b;" glyph-name="docs" horiz-adv-x="709" d="M133.908 889.108c-31.508 0-70.892-7.877-94.523-39.385-23.631-23.631-39.385-55.138-39.385-86.646v-653.785c0-31.508 15.754-70.892 39.385-94.523s63.015-39.385 94.523-39.385h409.6c39.385 0 70.892 15.754 94.523 39.385s39.385 55.138 39.385 94.523v496.246c0 23.631-7.877 47.262-31.508 70.892l-196.923 189.046c-7.877 7.877-23.631 15.754-31.508 15.754-15.754 7.877-23.631 7.877-39.385 7.877h-244.185zM70.892 763.077c0 15.754 7.877 31.508 23.631 47.262s31.508 15.754 47.262 15.754h204.8v-165.415c0-23.631 7.877-47.262 31.508-70.892 7.877-15.754 31.508-23.631 63.015-23.631h165.415v-456.862c0-15.754-7.877-31.508-23.631-47.262s-31.508-15.754-47.262-15.754h-401.723c-15.754 0-31.508 7.877-47.262 15.754-15.754 15.754-23.631 31.508-23.631 47.262v653.785zM590.769 629.169h-157.538c-7.877 0-15.754 0-23.631 7.877 0 7.877 0 15.754 0 23.631v149.662l181.169-181.169zM149.662 180.185c0 15.754 15.754 31.508 31.508 31.508h307.2c15.754 0 31.508-15.754 31.508-31.508s-15.754-31.508-31.508-31.508h-307.2c-15.754 0-31.508 15.754-31.508 31.508zM149.662 306.215c0 15.754 15.754 31.508 31.508 31.508h307.2c15.754 0 31.508-15.754 31.508-31.508s-15.754-31.508-31.508-31.508h-307.2c-15.754 0-31.508 15.754-31.508 31.508zM149.662 432.246c0 15.754 15.754 31.508 31.508 31.508h307.2c15.754 0 31.508-15.754 31.508-31.508s-15.754-31.508-31.508-31.508h-307.2c-15.754 0-31.508 15.754-31.508 31.508z" />
<glyph unicode="&#xe91c;" glyph-name="import-3rd" horiz-adv-x="1536" d="M1392.64 939.52c10.24 0 20.48 0 30.72-10.24s10.24-20.48 20.48-30.72v-860.16c0-10.24 0-20.48-10.24-30.72s-20.48-10.24-30.72-20.48c-10.24 0-20.48 0-30.72 10.24s-20.48 20.48-20.48 30.72v860.16c0 10.24 10.24 20.48 10.24 30.72s20.48 20.48 30.72 20.48zM829.44 816.64v0c10.24 10.24 20.48 20.48 40.96 20.48 10.24 0 20.48 0 30.72-10.24h10.24l317.44-327.68c10.24-10.24 10.24-20.48 10.24-30.72s0-20.48-10.24-30.72v-10.24l-327.68-327.68c-10.24-10.24-20.48-10.24-30.72-10.24s-20.48 0-30.72 10.24c-10.24 10.24-20.48 20.48-20.48 30.72s0 20.48 10.24 30.72v10.24l245.76 245.76h-901.12c-10.24 0-20.48 0-30.72 10.24s-10.24 20.48-10.24 30.72v10.24c0 10.24 0 20.48 10.24 30.72s20.48 10.24 30.72 20.48h911.36l-256 235.52c-10.24 10.24-10.24 20.48-10.24 30.72s0 20.48 10.24 30.72zM235.52 212.48c0-20.48-10.24-30.72-20.48-51.2-10.24 0-20.48-10.24-40.96-20.48v0c20.48 0 40.96-10.24 51.2-20.48s20.48-30.72 20.48-40.96c0-30.72-10.24-51.2-30.72-61.44-20.48-20.48-51.2-30.72-92.16-30.72-30.72 0-61.44 10.24-81.92 20.48v40.96c10.24 0 30.72-10.24 40.96-10.24s20.48 0 40.96 0c20.48 0 30.72 0 40.96 10.24s10.24 20.48 10.24 30.72c0 10.24-10.24 20.48-20.48 30.72 0 0-20.48 10.24-40.96 10.24h-20.48v40.96h20.48c20.48 0 40.96 0 51.2 10.24s20.48 20.48 20.48 30.72c0 20.48-10.24 30.72-40.96 30.72-10.24 0-20.48 0-30.72 0s-20.48-10.24-30.72-20.48l-40.96 40.96c30.72 20.48 61.44 30.72 102.4 30.72 30.72 0 51.2-10.24 71.68-20.48 10.24-10.24 20.48-30.72 20.48-51.2zM419.84 212.48c10.24 0 10.24 0 20.48 0v-61.44c0 0-10.24 0-20.48 0-20.48 0-30.72 0-40.96-10.24-20.48-10.24-20.48-20.48-20.48-40.96v-112.64h-61.44v225.28h51.2l10.24-40.96c10.24 10.24 20.48 20.48 30.72 30.72 0 10.24 10.24 10.24 30.72 10.24zM552.96-12.8c-30.72 0-51.2 10.24-61.44 30.72-20.48 20.48-30.72 40.96-30.72 81.92s10.24 61.44 20.48 81.92c10.24 20.48 40.96 30.72 61.44 30.72 30.72 0 51.2-10.24 61.44-30.72v0c0 20.48 0 30.72 0 40.96v81.92h61.44v-307.2h-40.96l-10.24 20.48c-10.24-20.48-40.96-30.72-61.44-30.72zM573.44 28.16c20.48 0 30.72 0 30.72 10.24 10.24 20.48 10.24 30.72 10.24 51.2v10.24c0 20.48 0 40.96-10.24 51.2 0 10.24-20.48 20.48-30.72 20.48s-20.48-10.24-30.72-20.48c-10.24-10.24-10.24-30.72-10.24-51.2s0-40.96 10.24-51.2c0-10.24 10.24-20.48 30.72-20.48z" />
<glyph unicode="&#xe91d;" glyph-name="save" d="M260.655 960v-214.109c0-37.236 9.309-65.164 37.236-93.091s55.855-37.236 93.091-37.236h167.564c37.236 0 65.164 9.309 93.091 37.236s37.236 55.855 37.236 93.091v214.109h27.927c46.545 0 93.091-18.618 121.018-46.545l139.636-139.636c27.927-37.236 46.545-74.473 46.545-121.018v-539.927c0-46.545-18.618-93.091-46.545-121.018-37.236-37.236-74.473-55.855-121.018-55.855v381.673c0 37.236-9.309 65.164-37.236 93.091s-55.855 37.236-93.091 37.236h-428.218c-74.473 0-130.327-55.855-130.327-130.327v-381.673c-46.545 0-93.091 18.618-121.018 46.545-27.927 37.236-46.545 74.473-46.545 121.018v688.873c0 46.545 18.618 93.091 46.545 121.018 37.236 27.927 74.473 46.545 121.018 46.545h93.091zM344.436 960v-214.109c0-9.309 0-18.618 9.309-27.927s18.618-18.618 27.927-18.618h176.873c9.309 0 18.618 0 27.927 9.309s9.309 18.618 9.309 27.927v223.418h-251.345zM260.655-64h512v381.673c0 9.309 0 18.618-9.309 27.927-18.618 9.309-27.927 18.618-37.236 18.618h-428.218c-18.618 0-37.236-18.618-37.236-46.545v-381.673z" />
<glyph unicode="&#xe91e;" glyph-name="eye" horiz-adv-x="1434" d="M194.56 396.8v0c0-10.24 0-10.24-10.24-20.48 0-10.24-10.24-10.24-20.48-10.24s-10.24-10.24-20.48-10.24c-10.24 0-10.24 0-20.48 0-40.96 10.24-30.72 71.68-30.72 71.68v10.24c0 0 0 10.24 10.24 20.48 30.72 81.92 71.68 153.6 122.88 215.040 102.4 122.88 266.24 235.52 522.24 235.52 266.24 0 430.080-122.88 522.24-235.52 61.44-71.68 102.4-143.36 122.88-225.28 0-10.24 0-10.24 10.24-20.48v0 0 0c0-10.24 0-30.72-10.24-40.96s-20.48-20.48-30.72-20.48c-10.24 0-30.72 0-40.96 10.24s-20.48 20.48-30.72 30.72v0 0c-10.24 20.48-10.24 40.96-20.48 61.44-20.48 51.2-51.2 92.16-81.92 143.36-81.92 102.4-215.040 194.56-440.32 194.56s-358.4-102.4-440.32-194.56c-51.2-71.68-81.92-133.12-102.4-204.8-10.24 0-10.24 0-10.24-10.24v0zM471.040 304.64c0 71.68 30.72 143.36 81.92 194.56s122.88 71.68 194.56 71.68 143.36-20.48 194.56-71.68c51.2-61.44 81.92-122.88 81.92-194.56s-30.72-143.36-81.92-194.56c-51.2-51.2-122.88-81.92-194.56-81.92s-143.36 30.72-194.56 81.92c-51.2 51.2-81.92 112.64-81.92 194.56z" />
<glyph unicode="&#xe91f;" glyph-name="send" d="M68.267 942.933c-8.533 0-8.533 0-17.067 0s-8.533 0-17.067-8.533c-8.533 0-8.533-8.533-8.533-17.067s0-8.533 0-17.067l93.867-341.333c0-8.533 8.533-8.533 8.533-17.067 8.533-8.533 8.533-8.533 17.067-8.533l401.067-68.267c17.067 0 17.067-34.133 0-34.133l-409.6-51.2c-8.533 0-8.533 0-17.067-8.533 0-8.533-8.533-8.533-8.533-17.067l-93.867-341.333c0-8.533 0-17.067 0-17.067 0-8.533 8.533-8.533 8.533-17.067 8.533 0 8.533-8.533 17.067-8.533s17.067 0 17.067 0l904.533 452.267c8.533 0 8.533 8.533 17.067 17.067 0 8.533 8.533 8.533 8.533 17.067s0 17.067-8.533 17.067c0 8.533-8.533 8.533-17.067 17.067l-896 452.267z" />
<glyph unicode="&#xe920;" glyph-name="checkmark" horiz-adv-x="1331" d="M501.76-43.52l-450.56 440.32 122.88 122.88 307.2-307.2 614.4 686.080 133.12-122.88-727.040-819.2z" />
<glyph unicode="&#xe921;" glyph-name="req" horiz-adv-x="1408" d="M140.8 396.8v-192h-140.8v512h166.4c140.8 12.8 217.6-51.2 217.6-153.6 0-64-25.6-115.2-89.6-140.8l153.6-230.4h-153.6l-115.2 179.2h-38.4v25.6zM140.8 499.2h25.6c51.2 0 76.8 12.8 76.8 64 0 38.4-25.6 51.2-76.8 51.2h-25.6v-115.2zM806.4 192h-307.2v537.6h307.2v-115.2h-166.4v-89.6h153.6v-115.2h-153.6v-102.4h166.4v-115.2zM1395.2 460.8c0-128-38.4-192-115.2-243.2l128-153.6h-179.2l-89.6 128c-89.6 0-153.6 12.8-192 64-51.2 51.2-64 115.2-64 204.8s12.8 153.6 64 192c51.2 51.2 102.4 64 192 64s153.6-12.8 192-64c38.4-38.4 64-102.4 64-192zM1036.8 460.8c0-102.4 38.4-153.6 102.4-153.6 38.4 0 64 12.8 76.8 38.4s25.6 64 25.6 115.2-12.8 89.6-25.6 115.2c-25.6 25.6-51.2 38.4-76.8 38.4-64 0-102.4-51.2-102.4-153.6z" />
<glyph unicode="&#xe922;" glyph-name="undo" horiz-adv-x="931" d="M0 894.836c0 18.618 9.309 37.236 18.618 46.545s27.927 18.618 46.545 18.618c18.618 0 27.927-9.309 46.545-18.618 9.309-9.309 18.618-27.927 18.618-46.545v-260.655l223.418 223.418c65.164 65.164 148.945 93.091 242.036 93.091s176.873-37.236 242.036-102.4c65.164-55.855 93.091-139.636 93.091-232.727s-37.236-176.873-93.091-242.036l-418.909-418.909c-9.309-9.309-9.309-9.309-18.618-18.618-9.309 0-18.618 0-27.927 0s-18.618 0-27.927 0c-9.309 0-18.618 9.309-18.618 18.618-9.309 9.309-9.309 9.309-18.618 18.618 0 9.309-9.309 18.618 0 27.927 0 9.309 0 18.618 9.309 27.927 0 9.309 9.309 18.618 18.618 18.618l409.6 418.909c18.618 18.618 37.236 46.545 46.545 65.164 9.309 27.927 18.618 55.855 18.618 83.782s-9.309 55.855-18.618 83.782c-9.309 27.927-27.927 46.545-46.545 74.473-18.618 18.618-37.236 27.927-65.164 46.545-27.927 9.309-55.855 9.309-83.782 9.309s-55.855-9.309-83.782-18.618c-18.618-9.309-46.545-18.618-65.164-37.236l-195.491-195.491h195.491c18.618 0 37.236-9.309 46.545-18.618s18.618-27.927 18.618-46.545c0-18.618-9.309-37.236-18.618-46.545s-27.927-18.618-46.545-18.618h-372.364c-18.618 0-37.236 9.309-55.855 18.618-9.309 18.618-18.618 37.236-18.618 55.855v372.364z" />
<glyph unicode="&#xe923;" glyph-name="experiment" horiz-adv-x="939" d="M290.133 925.867c0 17.067 17.067 34.133 34.133 34.133h273.067c17.067 0 34.133-17.067 34.133-34.133v-238.933l264.533-546.133c8.533-17.067 8.533-34.133 8.533-51.2s-8.533-34.133-17.067-51.2c-8.533-17.067-25.6-25.6-42.667-34.133s-34.133-17.067-51.2-17.067h-665.6c-17.067 0-34.133 0-51.2 8.533-25.6 8.533-42.667 34.133-51.2 59.733s-8.533 59.733 8.533 85.333l264.533 546.133v238.933zM691.2 405.333l-119.467 256c0 8.533 0 8.533 0 17.067v213.333h-213.333v-213.333c0-8.533 0-8.533 0-17.067l-153.6-315.733c17.067-8.533 34.133-17.067 59.733-25.6 51.2-8.533 110.933-8.533 170.667 34.133 76.8 68.267 170.667 68.267 230.4 51.2 8.533 0 17.067 0 25.6 0z" />
<glyph unicode="&#xe924;" glyph-name="preset" horiz-adv-x="1245" d="M311.216 357.647c-20.078 10.039-40.157 30.118-60.235 40.157v491.922c0 40.157-30.118 70.275-70.275 70.275s-70.275-30.118-70.275-70.275v-491.922c-20.078-10.039-40.157-30.118-60.235-40.157-10.039-20.078-30.118-40.157-40.157-60.235s-10.039-50.196-10.039-70.275 20.078-90.353 50.196-130.51c20.078-10.039 40.157-30.118 60.235-40.157v-50.196c0-40.157 30.118-70.275 70.275-70.275s70.275 30.118 70.275 70.275v50.196c20.078 10.039 40.157 20.078 60.235 40.157 30.118 30.118 50.196 80.314 50.196 130.51 0 20.078 0 50.196-10.039 70.275s-30.118 40.157-40.157 60.235zM692.706 839.529v50.196c0 40.157-30.118 70.275-70.275 70.275s-70.275-30.118-70.275-70.275v-50.196c-20.078-10.039-40.157-30.118-60.235-40.157-30.118-40.157-50.196-80.314-50.196-130.51s20.078-90.353 50.196-130.51c20.078-20.078 40.157-30.118 60.235-40.157v-491.922c0-40.157 30.118-70.275 70.275-70.275s70.275 30.118 70.275 70.275v491.922c20.078 10.039 40.157 20.078 60.235 40.157 30.118 40.157 50.196 80.314 50.196 130.51s-20.078 90.353-50.196 130.51c-20.078 10.039-40.157 30.118-60.235 40.157zM1244.863 227.137c0 20.078 0 50.196-10.039 70.275s-30.118 40.157-40.157 60.235c-20.078 20.078-40.157 30.118-60.235 40.157v491.922c0 40.157-30.118 70.275-70.275 70.275s-70.275-30.118-70.275-70.275v-491.922c-20.078-10.039-40.157-30.118-60.235-40.157-10.039-20.078-30.118-40.157-40.157-60.235s-10.039-50.196-10.039-70.275 20.078-90.353 50.196-130.51c20.078-10.039 40.157-30.118 60.235-40.157v-50.196c0-40.157 30.118-70.275 70.275-70.275s70.275 30.118 70.275 70.275v50.196c20.078 10.039 40.157 20.078 60.235 40.157 30.118 40.157 50.196 80.314 50.196 130.51z" />
<glyph unicode="&#xe925;" glyph-name="upload" d="M162.133-21.333c-34.133 0-59.733 8.533-85.333 34.133s-34.133 51.2-34.133 85.333v170.667h119.467v-179.2h708.267v179.2h119.467v-179.2c0-34.133-8.533-59.733-34.133-85.333s-51.2-34.133-85.333-34.133h-708.267zM452.267 209.067v486.4l-153.6-153.6-85.333 85.333 298.667 290.133 290.133-290.133-85.333-85.333-145.067 153.6v-477.867h-119.467z" />
<glyph unicode="&#xe926;" glyph-name="sync" horiz-adv-x="1109" d="M290.133-21.333l-256 264.533 264.533 264.533 76.8-76.8-145.067-136.533h793.6v-102.4h-793.6l136.533-136.533-76.8-76.8zM819.2 396.8l-76.8 68.267 136.533 136.533h-793.6v110.933h793.6l-136.533 128 76.8 76.8 264.533-264.533-264.533-256z" />
<glyph unicode="&#xe927;" glyph-name="download" d="M162.133-21.333c-34.133 0-59.733 8.533-85.333 34.133s-34.133 51.2-34.133 85.333v170.667h119.467v-179.2h708.267v179.2h119.467v-179.2c0-34.133-8.533-59.733-34.133-85.333s-51.2-34.133-85.333-34.133h-708.267zM512 209.067l-290.133 298.667 85.333 85.333 153.6-153.6v477.867h119.467v-477.867l153.6 153.6 85.333-85.333-307.2-298.667z" />
<glyph unicode="&#xe928;" glyph-name="timer" horiz-adv-x="878" d="M307.2 828.343v87.771h270.629v-87.771h-270.629zM394.971 338.286h87.771v263.314h-87.771v-263.314zM438.857-20.114c-58.514 0-109.714 7.314-153.6 29.257-51.2 21.943-87.771 51.2-124.343 87.771s-65.829 80.457-87.771 124.343c-29.257 51.2-36.571 102.4-36.571 160.914s7.314 109.714 29.257 153.6c21.943 51.2 51.2 95.086 87.771 131.657s80.457 65.829 124.343 87.771c51.2 14.629 102.4 29.257 160.914 29.257 43.886 0 87.771-7.314 131.657-21.943s80.457-36.571 117.029-65.829l65.829 65.829 65.829-65.829-65.829-65.829c29.257-36.571 51.2-73.143 65.829-117.029s21.943-87.771 21.943-131.657c0-58.514-7.314-109.714-29.257-153.6-21.943-51.2-51.2-87.771-87.771-124.343s-80.457-65.829-124.343-87.771c-51.2-29.257-102.4-36.571-160.914-36.571zM438.857 67.657c87.771 0 160.914 29.257 219.429 95.086 58.514 58.514 95.086 131.657 95.086 219.429s-29.257 160.914-95.086 219.429c-58.514 58.514-131.657 95.086-219.429 95.086s-160.914-36.571-219.429-95.086c-58.514-58.514-95.086-131.657-95.086-219.429s29.257-160.914 95.086-219.429c58.514-65.829 131.657-95.086 219.429-95.086z" />
<glyph unicode="&#xe929;" glyph-name="options" d="M267.815 448c0-70.892-55.138-126.031-126.031-126.031s-126.031 55.138-126.031 126.031 63.015 126.031 126.031 126.031 126.031-55.138 126.031-126.031zM645.908 448c0-70.892-55.138-126.031-126.031-126.031s-126.031 55.138-126.031 126.031 55.138 126.031 126.031 126.031 126.031-55.138 126.031-126.031zM1008.246 448c0-70.892-55.138-126.031-126.031-126.031s-126.031 55.138-126.031 126.031 55.138 126.031 126.031 126.031 126.031-55.138 126.031-126.031z" />
</font>
</defs>
</svg>
